<svg t="1764426927926" class="icon" viewBox="0 0 1024 1024" version="1.1" xmlns="http://www.w3.org/2000/svg" p-id="24381" width="200" height="200"><path d="M63.1 523.4c0 240.7 193.2 433.9 433.9 433.9 152.5 0 291.5-78 369.5-206.8-13.6 3.4-27.1 6.8-40.7 6.8-166.1 0-332.2-74.6-420.3-189.8-61-81.4-81.3-172.9-57.6-264.4 16.9-61 40.7-115.3 61-159.3 6.8-16.9 16.9-33.9 20.3-47.4C219 130.2 63.1 309.9 63.1 523.4M723.3 248.2l124.3-31.1L723.3 186 692.2 61.7 661.1 186l-124.3 31.1 124.3 31.1 31.1 124.3 31.1-124.3z m130 223.2l87.6-22.6-87.6-19.8-19.8-87.6-22.6 87.6-87.6 22.6 87.6 19.8 22.6 87.6 19.8-87.6z m0 0" fill="#333333" p-id="24382"></path></svg>