<svg t="1764426815508" class="icon" viewBox="0 0 1024 1024" version="1.1" xmlns="http://www.w3.org/2000/svg" p-id="22382" width="200" height="200"><path d="M187.733333 110.933333l85.333334 85.333334-68.266667 68.266666-85.333333-85.333333 68.266666-68.266667zM0 460.8h136.533333v93.866667H0V460.8zM469.333333 0h93.866667v136.533333H469.333333V0z m435.2 179.2l-68.266666-68.266667-85.333334 85.333334 68.266667 68.266666 85.333333-85.333333zM750.933333 819.2l85.333334 85.333333 68.266666-68.266666-85.333333-85.333334-68.266667 68.266667z m136.533334-358.4H1024v93.866667h-136.533333V460.8zM512 230.4C358.4 230.4 230.4 358.4 230.4 512c0 153.6 128 281.6 281.6 281.6 153.6 0 281.6-128 281.6-281.6 0-162.133333-128-281.6-281.6-281.6z m-42.666667 648.533333h93.866667v136.533334H469.333333v-136.533334z m-349.866666-42.666666l68.266666 68.266666 85.333334-85.333333-68.266667-68.266667-85.333333 85.333334z" fill="#FFD522" p-id="22383"></path></svg>